<svg xmlns="http://www.w3.org/2000/svg" viewBox="0 0 640 480">
<defs>
 <linearGradient id="bg" x1="0" x2="1" y1="0" y2="1"><stop stop-color="#f8fafc"/><stop offset="1" stop-color="#e2e8f0"/></linearGradient>
 <linearGradient id="metal" x1="0" x2="1"><stop stop-color="#f8fafc"/><stop offset=".45" stop-color="#cbd5e1"/><stop offset=".6" stop-color="#fff"/><stop offset="1" stop-color="#94a3b8"/></linearGradient>
 <filter id="shadow"><feDropShadow dx="0" dy="12" stdDeviation="14" flood-opacity=".18"/></filter>
</defs>
<rect width="640" height="480" rx="36" fill="url(#bg)"/>
<ellipse cx="320" cy="420" rx="185" ry="26" fill="#0f172a" opacity=".10"/>
<g filter="url(#shadow)">
<rect x="136" y="126" width="368" height="238" rx="20" fill="url(#metal)" stroke="#94a3b8"/>
<rect x="164" y="157" width="245" height="170" rx="8" fill="#111827"/>
<rect x="181" y="173" width="210" height="137" rx="5" fill="#0f172a"/>
<rect x="427" y="157" width="51" height="35" rx="5" fill="#020617"/><text x="452" y="181" text-anchor="middle" font-family="monospace" font-size="17" fill="#67e8f9">12:00</text>
<g fill="#64748b"><circle cx="439" cy="218" r="6"/><circle cx="462" cy="218" r="6"/><circle cx="439" cy="242" r="6"/><circle cx="462" cy="242" r="6"/><circle cx="439" cy="266" r="6"/><circle cx="462" cy="266" r="6"/></g>
<rect x="416" y="156" width="6" height="171" rx="3" fill="#334155"/>
</g><text x="320" y="454" text-anchor="middle" font-family="Arial,Helvetica,sans-serif" font-size="21" font-weight="700" fill="#475569">Countertop Microwave</text></svg>